# xmcd
#
# Track frame offsets:
#	150
#	9979
#	20461
#	32833
#	43263
#	54502
#	66424
#	78014
#	88341
#	101655
#	114430
#	127342
#	139621
#	150993
#	162303
#	174650
#	186524
#	199596
#	209316
#	220403
#
# Disc length: 3075 seconds
#
# Revision: 0
# Processed by: cddbd v1.4PL0 Copyright (c) Steve Scherf et al.
# Submitted via: EasyCDDAExtractor 4.5.0.2
#
DISCID=1d0c0114
DTITLE=George Jones - Golden Era of Capitol
DYEAR=1990
DGENRE=Country
TTITLE0=The Race Is On
TTITLE1=Your Heart Turned Left
TTITLE2=You Comb Her Hair
TTITLE3=Love's Gonna Live Here
TTITLE4=Don't Let The Stars Get In Your Eyes
TTITLE5=She Thinks I Still Care
TTITLE6=They'll Never Take Her Love From Me
TTITLE7=I Heard You Crying In Your Sleep
TTITLE8=Time Changes Everything
TTITLE9=San Antonio Rose
TTITLE10=Just When I Needed You
TTITLE11=We Must Have Been Out Of Our Mind
TTITLE12=We Could
TTITLE13=When Your House Is Not Your Home
TTITLE14=Girl I Used To Know
TTITLE15=Take Me As I Am
TTITLE16=Seasons Of My Heart
TTITLE17=You Done Me Wrong
TTITLE18=Mansion In The Hill
TTITLE19=Ragged But Right
EXTD=
EXTT0=
EXTT1=
EXTT2=
EXTT3=
EXTT4=
EXTT5=
EXTT6=
EXTT7=
EXTT8=
EXTT9=
EXTT10=
EXTT11=
EXTT12=
EXTT13=
EXTT14=
EXTT15=
EXTT16=
EXTT17=
EXTT18=
EXTT19=
PLAYORDER=
